%FSLAX45Y45*%
G04 Gerber Fmt 4.5, Leading zero omitted, Abs format (unit mm)*
G04 Created by KiCad (PCBNEW (6.0.2)) date 2022-03-19 09:05:39*
%MOMM*%
%LPD*%
G01*
G04 APERTURE LIST*
%TA.AperFunction,Profile*%
%ADD10C,0.150000*%
%TD*%
%ADD11C,0.200000*%
%ADD12C,0.080000*%
%ADD13C,0.090000*%
%ADD14C,0.100000*%
%ADD15C,0.110000*%
%ADD16C,0.120000*%
G04 APERTURE END LIST*
D10*
X6000000Y-5000000D02*
X11000000Y-5000000D01*
X6000000Y-15000000D02*
X6000000Y-5000000D01*
X11000000Y-15000000D02*
X11000000Y-5000000D01*
X6000000Y-15000000D02*
X11000000Y-15000000D01*
D11*
D12*
X6560000Y-11180511D02*
X6640000Y-11260511D01*
X6640000Y-11180511D02*
X6560000Y-11260511D01*
X6560000Y-11430511D02*
X6640000Y-11510511D01*
X6640000Y-11430511D02*
X6560000Y-11510511D01*
X7010000Y-13460000D02*
X7090000Y-13540000D01*
X7090000Y-13460000D02*
X7010000Y-13540000D01*
X7210000Y-12330511D02*
X7290000Y-12410511D01*
X7290000Y-12330511D02*
X7210000Y-12410511D01*
X7210000Y-12580511D02*
X7290000Y-12660511D01*
X7290000Y-12580511D02*
X7210000Y-12660511D01*
X8026000Y-13460000D02*
X8106000Y-13540000D01*
X8106000Y-13460000D02*
X8026000Y-13540000D01*
X8894000Y-13460000D02*
X8974000Y-13540000D01*
X8974000Y-13460000D02*
X8894000Y-13540000D01*
X9660000Y-12339489D02*
X9740000Y-12419489D01*
X9740000Y-12339489D02*
X9660000Y-12419489D01*
X9660000Y-12589489D02*
X9740000Y-12669489D01*
X9740000Y-12589489D02*
X9660000Y-12669489D01*
X9910000Y-13460000D02*
X9990000Y-13540000D01*
X9990000Y-13460000D02*
X9910000Y-13540000D01*
X10360000Y-11210000D02*
X10440000Y-11290000D01*
X10440000Y-11210000D02*
X10360000Y-11290000D01*
X10360000Y-11460000D02*
X10440000Y-11540000D01*
X10440000Y-11460000D02*
X10360000Y-11540000D01*
D13*
X6541000Y-13650000D02*
G75*
G03*
X6541000Y-13650000I-45000J0D01*
G01*
X6795000Y-13650000D02*
G75*
G03*
X6795000Y-13650000I-45000J0D01*
G01*
X10317500Y-13650000D02*
G75*
G03*
X10317500Y-13650000I-45000J0D01*
G01*
X10571500Y-13650000D02*
G75*
G03*
X10571500Y-13650000I-45000J0D01*
G01*
D14*
X7622000Y-14300000D02*
X7622000Y-14400000D01*
X7572000Y-14350000D02*
X7672000Y-14350000D01*
X7622000Y-14554000D02*
X7622000Y-14654000D01*
X7572000Y-14604000D02*
X7672000Y-14604000D01*
X7876000Y-14300000D02*
X7876000Y-14400000D01*
X7826000Y-14350000D02*
X7926000Y-14350000D01*
X7876000Y-14554000D02*
X7876000Y-14654000D01*
X7826000Y-14604000D02*
X7926000Y-14604000D01*
X8130000Y-14300000D02*
X8130000Y-14400000D01*
X8080000Y-14350000D02*
X8180000Y-14350000D01*
X8130000Y-14554000D02*
X8130000Y-14654000D01*
X8080000Y-14604000D02*
X8180000Y-14604000D01*
X8384000Y-14300000D02*
X8384000Y-14400000D01*
X8334000Y-14350000D02*
X8434000Y-14350000D01*
X8384000Y-14554000D02*
X8384000Y-14654000D01*
X8334000Y-14604000D02*
X8434000Y-14604000D01*
X8638000Y-14300000D02*
X8638000Y-14400000D01*
X8588000Y-14350000D02*
X8688000Y-14350000D01*
X8638000Y-14554000D02*
X8638000Y-14654000D01*
X8588000Y-14604000D02*
X8688000Y-14604000D01*
X8892000Y-14300000D02*
X8892000Y-14400000D01*
X8842000Y-14350000D02*
X8942000Y-14350000D01*
X8892000Y-14554000D02*
X8892000Y-14654000D01*
X8842000Y-14604000D02*
X8942000Y-14604000D01*
X9146000Y-14300000D02*
X9146000Y-14400000D01*
X9096000Y-14350000D02*
X9196000Y-14350000D01*
X9146000Y-14554000D02*
X9146000Y-14654000D01*
X9096000Y-14604000D02*
X9196000Y-14604000D01*
X9400000Y-14300000D02*
X9400000Y-14400000D01*
X9350000Y-14350000D02*
X9450000Y-14350000D01*
X9400000Y-14554000D02*
X9400000Y-14654000D01*
X9350000Y-14604000D02*
X9450000Y-14604000D01*
D15*
X6584891Y-12284891D02*
X6584891Y-12207109D01*
X6507109Y-12207109D01*
X6507109Y-12284891D01*
X6584891Y-12284891D01*
X6584891Y-12538891D02*
X6584891Y-12461109D01*
X6507109Y-12461109D01*
X6507109Y-12538891D01*
X6584891Y-12538891D01*
X6584891Y-12792891D02*
X6584891Y-12715109D01*
X6507109Y-12715109D01*
X6507109Y-12792891D01*
X6584891Y-12792891D01*
X8188891Y-6088891D02*
X8188891Y-6011109D01*
X8111109Y-6011109D01*
X8111109Y-6088891D01*
X8188891Y-6088891D01*
X8188891Y-7104891D02*
X8188891Y-7027109D01*
X8111109Y-7027109D01*
X8111109Y-7104891D01*
X8188891Y-7104891D01*
X8288891Y-5488891D02*
X8288891Y-5411109D01*
X8211109Y-5411109D01*
X8211109Y-5488891D01*
X8288891Y-5488891D01*
X8338891Y-12038891D02*
X8338891Y-11961109D01*
X8261109Y-11961109D01*
X8261109Y-12038891D01*
X8338891Y-12038891D01*
X8338891Y-13054891D02*
X8338891Y-12977109D01*
X8261109Y-12977109D01*
X8261109Y-13054891D01*
X8338891Y-13054891D01*
X8788891Y-5488891D02*
X8788891Y-5411109D01*
X8711109Y-5411109D01*
X8711109Y-5488891D01*
X8788891Y-5488891D01*
X8788891Y-6080891D02*
X8788891Y-6003109D01*
X8711109Y-6003109D01*
X8711109Y-6080891D01*
X8788891Y-6080891D01*
X8788891Y-7096891D02*
X8788891Y-7019109D01*
X8711109Y-7019109D01*
X8711109Y-7096891D01*
X8788891Y-7096891D01*
X8788891Y-12030891D02*
X8788891Y-11953109D01*
X8711109Y-11953109D01*
X8711109Y-12030891D01*
X8788891Y-12030891D01*
X8788891Y-13046891D02*
X8788891Y-12969109D01*
X8711109Y-12969109D01*
X8711109Y-13046891D01*
X8788891Y-13046891D01*
X10488891Y-12288891D02*
X10488891Y-12211109D01*
X10411109Y-12211109D01*
X10411109Y-12288891D01*
X10488891Y-12288891D01*
X10488891Y-12542891D02*
X10488891Y-12465109D01*
X10411109Y-12465109D01*
X10411109Y-12542891D01*
X10488891Y-12542891D01*
X10488891Y-12796891D02*
X10488891Y-12719109D01*
X10411109Y-12719109D01*
X10411109Y-12796891D01*
X10488891Y-12796891D01*
D16*
X6602222Y-7060000D02*
X6662222Y-7000000D01*
X6602222Y-6940000D01*
X6542222Y-7000000D01*
X6602222Y-7060000D01*
X6602222Y-9460000D02*
X6662222Y-9400000D01*
X6602222Y-9340000D01*
X6542222Y-9400000D01*
X6602222Y-9460000D01*
X7352222Y-7060000D02*
X7412222Y-7000000D01*
X7352222Y-6940000D01*
X7292222Y-7000000D01*
X7352222Y-7060000D01*
X7352222Y-9460000D02*
X7412222Y-9400000D01*
X7352222Y-9340000D01*
X7292222Y-9400000D01*
X7352222Y-9460000D01*
X8100000Y-8260000D02*
X8160000Y-8200000D01*
X8100000Y-8140000D01*
X8040000Y-8200000D01*
X8100000Y-8260000D01*
X8102222Y-10660000D02*
X8162222Y-10600000D01*
X8102222Y-10540000D01*
X8042222Y-10600000D01*
X8102222Y-10660000D01*
X8850000Y-8260000D02*
X8910000Y-8200000D01*
X8850000Y-8140000D01*
X8790000Y-8200000D01*
X8850000Y-8260000D01*
X8852222Y-10660000D02*
X8912222Y-10600000D01*
X8852222Y-10540000D01*
X8792222Y-10600000D01*
X8852222Y-10660000D01*
X9597778Y-7060000D02*
X9657778Y-7000000D01*
X9597778Y-6940000D01*
X9537778Y-7000000D01*
X9597778Y-7060000D01*
X9597778Y-9460000D02*
X9657778Y-9400000D01*
X9597778Y-9340000D01*
X9537778Y-9400000D01*
X9597778Y-9460000D01*
X10347778Y-7060000D02*
X10407778Y-7000000D01*
X10347778Y-6940000D01*
X10287778Y-7000000D01*
X10347778Y-7060000D01*
X10347778Y-9460000D02*
X10407778Y-9400000D01*
X10347778Y-9340000D01*
X10287778Y-9400000D01*
X10347778Y-9460000D01*
D11*
X6250119Y-15317976D02*
X6250119Y-15117976D01*
X6297738Y-15117976D01*
X6326309Y-15127500D01*
X6345357Y-15146548D01*
X6354881Y-15165595D01*
X6364405Y-15203690D01*
X6364405Y-15232262D01*
X6354881Y-15270357D01*
X6345357Y-15289405D01*
X6326309Y-15308452D01*
X6297738Y-15317976D01*
X6250119Y-15317976D01*
X6450119Y-15317976D02*
X6450119Y-15184643D01*
X6450119Y-15222738D02*
X6459643Y-15203690D01*
X6469167Y-15194167D01*
X6488214Y-15184643D01*
X6507262Y-15184643D01*
X6573928Y-15317976D02*
X6573928Y-15184643D01*
X6573928Y-15117976D02*
X6564405Y-15127500D01*
X6573928Y-15137024D01*
X6583452Y-15127500D01*
X6573928Y-15117976D01*
X6573928Y-15137024D01*
X6697738Y-15317976D02*
X6678690Y-15308452D01*
X6669167Y-15289405D01*
X6669167Y-15117976D01*
X6802500Y-15317976D02*
X6783452Y-15308452D01*
X6773928Y-15289405D01*
X6773928Y-15117976D01*
X7031071Y-15317976D02*
X7031071Y-15117976D01*
X7097738Y-15260833D01*
X7164405Y-15117976D01*
X7164405Y-15317976D01*
X7345357Y-15317976D02*
X7345357Y-15213214D01*
X7335833Y-15194167D01*
X7316786Y-15184643D01*
X7278690Y-15184643D01*
X7259643Y-15194167D01*
X7345357Y-15308452D02*
X7326309Y-15317976D01*
X7278690Y-15317976D01*
X7259643Y-15308452D01*
X7250119Y-15289405D01*
X7250119Y-15270357D01*
X7259643Y-15251309D01*
X7278690Y-15241786D01*
X7326309Y-15241786D01*
X7345357Y-15232262D01*
X7440595Y-15184643D02*
X7440595Y-15384643D01*
X7440595Y-15194167D02*
X7459643Y-15184643D01*
X7497738Y-15184643D01*
X7516786Y-15194167D01*
X7526309Y-15203690D01*
X7535833Y-15222738D01*
X7535833Y-15279881D01*
X7526309Y-15298928D01*
X7516786Y-15308452D01*
X7497738Y-15317976D01*
X7459643Y-15317976D01*
X7440595Y-15308452D01*
X7621548Y-15298928D02*
X7631071Y-15308452D01*
X7621548Y-15317976D01*
X7612024Y-15308452D01*
X7621548Y-15298928D01*
X7621548Y-15317976D01*
X7621548Y-15194167D02*
X7631071Y-15203690D01*
X7621548Y-15213214D01*
X7612024Y-15203690D01*
X7621548Y-15194167D01*
X7621548Y-15213214D01*
D12*
X5912500Y-15607500D02*
X5992500Y-15687500D01*
X5992500Y-15607500D02*
X5912500Y-15687500D01*
D11*
X6288214Y-15537976D02*
X6307262Y-15537976D01*
X6326309Y-15547500D01*
X6335833Y-15557024D01*
X6345357Y-15576071D01*
X6354881Y-15614167D01*
X6354881Y-15661786D01*
X6345357Y-15699881D01*
X6335833Y-15718928D01*
X6326309Y-15728452D01*
X6307262Y-15737976D01*
X6288214Y-15737976D01*
X6269167Y-15728452D01*
X6259643Y-15718928D01*
X6250119Y-15699881D01*
X6240595Y-15661786D01*
X6240595Y-15614167D01*
X6250119Y-15576071D01*
X6259643Y-15557024D01*
X6269167Y-15547500D01*
X6288214Y-15537976D01*
X6440595Y-15718928D02*
X6450119Y-15728452D01*
X6440595Y-15737976D01*
X6431071Y-15728452D01*
X6440595Y-15718928D01*
X6440595Y-15737976D01*
X6564405Y-15623690D02*
X6545357Y-15614167D01*
X6535833Y-15604643D01*
X6526309Y-15585595D01*
X6526309Y-15576071D01*
X6535833Y-15557024D01*
X6545357Y-15547500D01*
X6564405Y-15537976D01*
X6602500Y-15537976D01*
X6621548Y-15547500D01*
X6631071Y-15557024D01*
X6640595Y-15576071D01*
X6640595Y-15585595D01*
X6631071Y-15604643D01*
X6621548Y-15614167D01*
X6602500Y-15623690D01*
X6564405Y-15623690D01*
X6545357Y-15633214D01*
X6535833Y-15642738D01*
X6526309Y-15661786D01*
X6526309Y-15699881D01*
X6535833Y-15718928D01*
X6545357Y-15728452D01*
X6564405Y-15737976D01*
X6602500Y-15737976D01*
X6621548Y-15728452D01*
X6631071Y-15718928D01*
X6640595Y-15699881D01*
X6640595Y-15661786D01*
X6631071Y-15642738D01*
X6621548Y-15633214D01*
X6602500Y-15623690D01*
X6764405Y-15537976D02*
X6783452Y-15537976D01*
X6802500Y-15547500D01*
X6812024Y-15557024D01*
X6821548Y-15576071D01*
X6831071Y-15614167D01*
X6831071Y-15661786D01*
X6821548Y-15699881D01*
X6812024Y-15718928D01*
X6802500Y-15728452D01*
X6783452Y-15737976D01*
X6764405Y-15737976D01*
X6745357Y-15728452D01*
X6735833Y-15718928D01*
X6726309Y-15699881D01*
X6716786Y-15661786D01*
X6716786Y-15614167D01*
X6726309Y-15576071D01*
X6735833Y-15557024D01*
X6745357Y-15547500D01*
X6764405Y-15537976D01*
X6954881Y-15537976D02*
X6973928Y-15537976D01*
X6992976Y-15547500D01*
X7002500Y-15557024D01*
X7012024Y-15576071D01*
X7021548Y-15614167D01*
X7021548Y-15661786D01*
X7012024Y-15699881D01*
X7002500Y-15718928D01*
X6992976Y-15728452D01*
X6973928Y-15737976D01*
X6954881Y-15737976D01*
X6935833Y-15728452D01*
X6926309Y-15718928D01*
X6916786Y-15699881D01*
X6907262Y-15661786D01*
X6907262Y-15614167D01*
X6916786Y-15576071D01*
X6926309Y-15557024D01*
X6935833Y-15547500D01*
X6954881Y-15537976D01*
X7107262Y-15737976D02*
X7107262Y-15604643D01*
X7107262Y-15623690D02*
X7116786Y-15614167D01*
X7135833Y-15604643D01*
X7164405Y-15604643D01*
X7183452Y-15614167D01*
X7192976Y-15633214D01*
X7192976Y-15737976D01*
X7192976Y-15633214D02*
X7202500Y-15614167D01*
X7221548Y-15604643D01*
X7250119Y-15604643D01*
X7269167Y-15614167D01*
X7278690Y-15633214D01*
X7278690Y-15737976D01*
X7373928Y-15737976D02*
X7373928Y-15604643D01*
X7373928Y-15623690D02*
X7383452Y-15614167D01*
X7402500Y-15604643D01*
X7431071Y-15604643D01*
X7450119Y-15614167D01*
X7459643Y-15633214D01*
X7459643Y-15737976D01*
X7459643Y-15633214D02*
X7469167Y-15614167D01*
X7488214Y-15604643D01*
X7516786Y-15604643D01*
X7535833Y-15614167D01*
X7545357Y-15633214D01*
X7545357Y-15737976D01*
X7935833Y-15528452D02*
X7764405Y-15785595D01*
X8192976Y-15537976D02*
X8212024Y-15537976D01*
X8231071Y-15547500D01*
X8240595Y-15557024D01*
X8250119Y-15576071D01*
X8259643Y-15614167D01*
X8259643Y-15661786D01*
X8250119Y-15699881D01*
X8240595Y-15718928D01*
X8231071Y-15728452D01*
X8212024Y-15737976D01*
X8192976Y-15737976D01*
X8173928Y-15728452D01*
X8164405Y-15718928D01*
X8154881Y-15699881D01*
X8145357Y-15661786D01*
X8145357Y-15614167D01*
X8154881Y-15576071D01*
X8164405Y-15557024D01*
X8173928Y-15547500D01*
X8192976Y-15537976D01*
X8345357Y-15718928D02*
X8354881Y-15728452D01*
X8345357Y-15737976D01*
X8335833Y-15728452D01*
X8345357Y-15718928D01*
X8345357Y-15737976D01*
X8478690Y-15537976D02*
X8497738Y-15537976D01*
X8516786Y-15547500D01*
X8526310Y-15557024D01*
X8535833Y-15576071D01*
X8545357Y-15614167D01*
X8545357Y-15661786D01*
X8535833Y-15699881D01*
X8526310Y-15718928D01*
X8516786Y-15728452D01*
X8497738Y-15737976D01*
X8478690Y-15737976D01*
X8459643Y-15728452D01*
X8450119Y-15718928D01*
X8440595Y-15699881D01*
X8431071Y-15661786D01*
X8431071Y-15614167D01*
X8440595Y-15576071D01*
X8450119Y-15557024D01*
X8459643Y-15547500D01*
X8478690Y-15537976D01*
X8612024Y-15537976D02*
X8735833Y-15537976D01*
X8669167Y-15614167D01*
X8697738Y-15614167D01*
X8716786Y-15623690D01*
X8726310Y-15633214D01*
X8735833Y-15652262D01*
X8735833Y-15699881D01*
X8726310Y-15718928D01*
X8716786Y-15728452D01*
X8697738Y-15737976D01*
X8640595Y-15737976D01*
X8621548Y-15728452D01*
X8612024Y-15718928D01*
X8926310Y-15737976D02*
X8812024Y-15737976D01*
X8869167Y-15737976D02*
X8869167Y-15537976D01*
X8850119Y-15566548D01*
X8831071Y-15585595D01*
X8812024Y-15595119D01*
X9107262Y-15537976D02*
X9012024Y-15537976D01*
X9002500Y-15633214D01*
X9012024Y-15623690D01*
X9031071Y-15614167D01*
X9078690Y-15614167D01*
X9097738Y-15623690D01*
X9107262Y-15633214D01*
X9116786Y-15652262D01*
X9116786Y-15699881D01*
X9107262Y-15718928D01*
X9097738Y-15728452D01*
X9078690Y-15737976D01*
X9031071Y-15737976D01*
X9012024Y-15728452D01*
X9002500Y-15718928D01*
X9192976Y-15537976D02*
X9192976Y-15576071D01*
X9269167Y-15537976D02*
X9269167Y-15576071D01*
X9564405Y-15814167D02*
X9554881Y-15804643D01*
X9535833Y-15776071D01*
X9526310Y-15757024D01*
X9516786Y-15728452D01*
X9507262Y-15680833D01*
X9507262Y-15642738D01*
X9516786Y-15595119D01*
X9526310Y-15566548D01*
X9535833Y-15547500D01*
X9554881Y-15518928D01*
X9564405Y-15509405D01*
X9745357Y-15737976D02*
X9631071Y-15737976D01*
X9688214Y-15737976D02*
X9688214Y-15537976D01*
X9669167Y-15566548D01*
X9650119Y-15585595D01*
X9631071Y-15595119D01*
X9821548Y-15557024D02*
X9831071Y-15547500D01*
X9850119Y-15537976D01*
X9897738Y-15537976D01*
X9916786Y-15547500D01*
X9926310Y-15557024D01*
X9935833Y-15576071D01*
X9935833Y-15595119D01*
X9926310Y-15623690D01*
X9812024Y-15737976D01*
X9935833Y-15737976D01*
X10173929Y-15737976D02*
X10173929Y-15537976D01*
X10259643Y-15737976D02*
X10259643Y-15633214D01*
X10250119Y-15614167D01*
X10231071Y-15604643D01*
X10202500Y-15604643D01*
X10183452Y-15614167D01*
X10173929Y-15623690D01*
X10383452Y-15737976D02*
X10364405Y-15728452D01*
X10354881Y-15718928D01*
X10345357Y-15699881D01*
X10345357Y-15642738D01*
X10354881Y-15623690D01*
X10364405Y-15614167D01*
X10383452Y-15604643D01*
X10412024Y-15604643D01*
X10431071Y-15614167D01*
X10440595Y-15623690D01*
X10450119Y-15642738D01*
X10450119Y-15699881D01*
X10440595Y-15718928D01*
X10431071Y-15728452D01*
X10412024Y-15737976D01*
X10383452Y-15737976D01*
X10564405Y-15737976D02*
X10545357Y-15728452D01*
X10535833Y-15709405D01*
X10535833Y-15537976D01*
X10716786Y-15728452D02*
X10697738Y-15737976D01*
X10659643Y-15737976D01*
X10640595Y-15728452D01*
X10631071Y-15709405D01*
X10631071Y-15633214D01*
X10640595Y-15614167D01*
X10659643Y-15604643D01*
X10697738Y-15604643D01*
X10716786Y-15614167D01*
X10726310Y-15633214D01*
X10726310Y-15652262D01*
X10631071Y-15671309D01*
X10802500Y-15728452D02*
X10821548Y-15737976D01*
X10859643Y-15737976D01*
X10878690Y-15728452D01*
X10888214Y-15709405D01*
X10888214Y-15699881D01*
X10878690Y-15680833D01*
X10859643Y-15671309D01*
X10831071Y-15671309D01*
X10812024Y-15661786D01*
X10802500Y-15642738D01*
X10802500Y-15633214D01*
X10812024Y-15614167D01*
X10831071Y-15604643D01*
X10859643Y-15604643D01*
X10878690Y-15614167D01*
X10954881Y-15814167D02*
X10964405Y-15804643D01*
X10983452Y-15776071D01*
X10992976Y-15757024D01*
X11002500Y-15728452D01*
X11012024Y-15680833D01*
X11012024Y-15642738D01*
X11002500Y-15595119D01*
X10992976Y-15566548D01*
X10983452Y-15547500D01*
X10964405Y-15518928D01*
X10954881Y-15509405D01*
D13*
X5992500Y-15911500D02*
G75*
G03*
X5992500Y-15911500I-45000J0D01*
G01*
D11*
X6288214Y-15801976D02*
X6307262Y-15801976D01*
X6326309Y-15811500D01*
X6335833Y-15821024D01*
X6345357Y-15840071D01*
X6354881Y-15878167D01*
X6354881Y-15925786D01*
X6345357Y-15963881D01*
X6335833Y-15982928D01*
X6326309Y-15992452D01*
X6307262Y-16001976D01*
X6288214Y-16001976D01*
X6269167Y-15992452D01*
X6259643Y-15982928D01*
X6250119Y-15963881D01*
X6240595Y-15925786D01*
X6240595Y-15878167D01*
X6250119Y-15840071D01*
X6259643Y-15821024D01*
X6269167Y-15811500D01*
X6288214Y-15801976D01*
X6440595Y-15982928D02*
X6450119Y-15992452D01*
X6440595Y-16001976D01*
X6431071Y-15992452D01*
X6440595Y-15982928D01*
X6440595Y-16001976D01*
X6545357Y-16001976D02*
X6583452Y-16001976D01*
X6602500Y-15992452D01*
X6612024Y-15982928D01*
X6631071Y-15954357D01*
X6640595Y-15916262D01*
X6640595Y-15840071D01*
X6631071Y-15821024D01*
X6621548Y-15811500D01*
X6602500Y-15801976D01*
X6564405Y-15801976D01*
X6545357Y-15811500D01*
X6535833Y-15821024D01*
X6526309Y-15840071D01*
X6526309Y-15887690D01*
X6535833Y-15906738D01*
X6545357Y-15916262D01*
X6564405Y-15925786D01*
X6602500Y-15925786D01*
X6621548Y-15916262D01*
X6631071Y-15906738D01*
X6640595Y-15887690D01*
X6764405Y-15801976D02*
X6783452Y-15801976D01*
X6802500Y-15811500D01*
X6812024Y-15821024D01*
X6821548Y-15840071D01*
X6831071Y-15878167D01*
X6831071Y-15925786D01*
X6821548Y-15963881D01*
X6812024Y-15982928D01*
X6802500Y-15992452D01*
X6783452Y-16001976D01*
X6764405Y-16001976D01*
X6745357Y-15992452D01*
X6735833Y-15982928D01*
X6726309Y-15963881D01*
X6716786Y-15925786D01*
X6716786Y-15878167D01*
X6726309Y-15840071D01*
X6735833Y-15821024D01*
X6745357Y-15811500D01*
X6764405Y-15801976D01*
X6954881Y-15801976D02*
X6973928Y-15801976D01*
X6992976Y-15811500D01*
X7002500Y-15821024D01*
X7012024Y-15840071D01*
X7021548Y-15878167D01*
X7021548Y-15925786D01*
X7012024Y-15963881D01*
X7002500Y-15982928D01*
X6992976Y-15992452D01*
X6973928Y-16001976D01*
X6954881Y-16001976D01*
X6935833Y-15992452D01*
X6926309Y-15982928D01*
X6916786Y-15963881D01*
X6907262Y-15925786D01*
X6907262Y-15878167D01*
X6916786Y-15840071D01*
X6926309Y-15821024D01*
X6935833Y-15811500D01*
X6954881Y-15801976D01*
X7107262Y-16001976D02*
X7107262Y-15868643D01*
X7107262Y-15887690D02*
X7116786Y-15878167D01*
X7135833Y-15868643D01*
X7164405Y-15868643D01*
X7183452Y-15878167D01*
X7192976Y-15897214D01*
X7192976Y-16001976D01*
X7192976Y-15897214D02*
X7202500Y-15878167D01*
X7221548Y-15868643D01*
X7250119Y-15868643D01*
X7269167Y-15878167D01*
X7278690Y-15897214D01*
X7278690Y-16001976D01*
X7373928Y-16001976D02*
X7373928Y-15868643D01*
X7373928Y-15887690D02*
X7383452Y-15878167D01*
X7402500Y-15868643D01*
X7431071Y-15868643D01*
X7450119Y-15878167D01*
X7459643Y-15897214D01*
X7459643Y-16001976D01*
X7459643Y-15897214D02*
X7469167Y-15878167D01*
X7488214Y-15868643D01*
X7516786Y-15868643D01*
X7535833Y-15878167D01*
X7545357Y-15897214D01*
X7545357Y-16001976D01*
X7935833Y-15792452D02*
X7764405Y-16049595D01*
X8192976Y-15801976D02*
X8212024Y-15801976D01*
X8231071Y-15811500D01*
X8240595Y-15821024D01*
X8250119Y-15840071D01*
X8259643Y-15878167D01*
X8259643Y-15925786D01*
X8250119Y-15963881D01*
X8240595Y-15982928D01*
X8231071Y-15992452D01*
X8212024Y-16001976D01*
X8192976Y-16001976D01*
X8173928Y-15992452D01*
X8164405Y-15982928D01*
X8154881Y-15963881D01*
X8145357Y-15925786D01*
X8145357Y-15878167D01*
X8154881Y-15840071D01*
X8164405Y-15821024D01*
X8173928Y-15811500D01*
X8192976Y-15801976D01*
X8345357Y-15982928D02*
X8354881Y-15992452D01*
X8345357Y-16001976D01*
X8335833Y-15992452D01*
X8345357Y-15982928D01*
X8345357Y-16001976D01*
X8478690Y-15801976D02*
X8497738Y-15801976D01*
X8516786Y-15811500D01*
X8526310Y-15821024D01*
X8535833Y-15840071D01*
X8545357Y-15878167D01*
X8545357Y-15925786D01*
X8535833Y-15963881D01*
X8526310Y-15982928D01*
X8516786Y-15992452D01*
X8497738Y-16001976D01*
X8478690Y-16001976D01*
X8459643Y-15992452D01*
X8450119Y-15982928D01*
X8440595Y-15963881D01*
X8431071Y-15925786D01*
X8431071Y-15878167D01*
X8440595Y-15840071D01*
X8450119Y-15821024D01*
X8459643Y-15811500D01*
X8478690Y-15801976D01*
X8612024Y-15801976D02*
X8735833Y-15801976D01*
X8669167Y-15878167D01*
X8697738Y-15878167D01*
X8716786Y-15887690D01*
X8726310Y-15897214D01*
X8735833Y-15916262D01*
X8735833Y-15963881D01*
X8726310Y-15982928D01*
X8716786Y-15992452D01*
X8697738Y-16001976D01*
X8640595Y-16001976D01*
X8621548Y-15992452D01*
X8612024Y-15982928D01*
X8916786Y-15801976D02*
X8821548Y-15801976D01*
X8812024Y-15897214D01*
X8821548Y-15887690D01*
X8840595Y-15878167D01*
X8888214Y-15878167D01*
X8907262Y-15887690D01*
X8916786Y-15897214D01*
X8926310Y-15916262D01*
X8926310Y-15963881D01*
X8916786Y-15982928D01*
X8907262Y-15992452D01*
X8888214Y-16001976D01*
X8840595Y-16001976D01*
X8821548Y-15992452D01*
X8812024Y-15982928D01*
X9097738Y-15868643D02*
X9097738Y-16001976D01*
X9050119Y-15792452D02*
X9002500Y-15935309D01*
X9126310Y-15935309D01*
X9192976Y-15801976D02*
X9192976Y-15840071D01*
X9269167Y-15801976D02*
X9269167Y-15840071D01*
X9564405Y-16078167D02*
X9554881Y-16068643D01*
X9535833Y-16040071D01*
X9526310Y-16021024D01*
X9516786Y-15992452D01*
X9507262Y-15944833D01*
X9507262Y-15906738D01*
X9516786Y-15859119D01*
X9526310Y-15830548D01*
X9535833Y-15811500D01*
X9554881Y-15782928D01*
X9564405Y-15773405D01*
X9726310Y-15868643D02*
X9726310Y-16001976D01*
X9678690Y-15792452D02*
X9631071Y-15935309D01*
X9754881Y-15935309D01*
X9983452Y-16001976D02*
X9983452Y-15801976D01*
X10069167Y-16001976D02*
X10069167Y-15897214D01*
X10059643Y-15878167D01*
X10040595Y-15868643D01*
X10012024Y-15868643D01*
X9992976Y-15878167D01*
X9983452Y-15887690D01*
X10192976Y-16001976D02*
X10173929Y-15992452D01*
X10164405Y-15982928D01*
X10154881Y-15963881D01*
X10154881Y-15906738D01*
X10164405Y-15887690D01*
X10173929Y-15878167D01*
X10192976Y-15868643D01*
X10221548Y-15868643D01*
X10240595Y-15878167D01*
X10250119Y-15887690D01*
X10259643Y-15906738D01*
X10259643Y-15963881D01*
X10250119Y-15982928D01*
X10240595Y-15992452D01*
X10221548Y-16001976D01*
X10192976Y-16001976D01*
X10373929Y-16001976D02*
X10354881Y-15992452D01*
X10345357Y-15973405D01*
X10345357Y-15801976D01*
X10526310Y-15992452D02*
X10507262Y-16001976D01*
X10469167Y-16001976D01*
X10450119Y-15992452D01*
X10440595Y-15973405D01*
X10440595Y-15897214D01*
X10450119Y-15878167D01*
X10469167Y-15868643D01*
X10507262Y-15868643D01*
X10526310Y-15878167D01*
X10535833Y-15897214D01*
X10535833Y-15916262D01*
X10440595Y-15935309D01*
X10612024Y-15992452D02*
X10631071Y-16001976D01*
X10669167Y-16001976D01*
X10688214Y-15992452D01*
X10697738Y-15973405D01*
X10697738Y-15963881D01*
X10688214Y-15944833D01*
X10669167Y-15935309D01*
X10640595Y-15935309D01*
X10621548Y-15925786D01*
X10612024Y-15906738D01*
X10612024Y-15897214D01*
X10621548Y-15878167D01*
X10640595Y-15868643D01*
X10669167Y-15868643D01*
X10688214Y-15878167D01*
X10764405Y-16078167D02*
X10773929Y-16068643D01*
X10792976Y-16040071D01*
X10802500Y-16021024D01*
X10812024Y-15992452D01*
X10821548Y-15944833D01*
X10821548Y-15906738D01*
X10812024Y-15859119D01*
X10802500Y-15830548D01*
X10792976Y-15811500D01*
X10773929Y-15782928D01*
X10764405Y-15773405D01*
D14*
X5942500Y-16125500D02*
X5942500Y-16225500D01*
X5892500Y-16175500D02*
X5992500Y-16175500D01*
D11*
X6354881Y-16265976D02*
X6240595Y-16265976D01*
X6297738Y-16265976D02*
X6297738Y-16065976D01*
X6278690Y-16094548D01*
X6259643Y-16113595D01*
X6240595Y-16123119D01*
X6440595Y-16246928D02*
X6450119Y-16256452D01*
X6440595Y-16265976D01*
X6431071Y-16256452D01*
X6440595Y-16246928D01*
X6440595Y-16265976D01*
X6573928Y-16065976D02*
X6592976Y-16065976D01*
X6612024Y-16075500D01*
X6621548Y-16085024D01*
X6631071Y-16104071D01*
X6640595Y-16142167D01*
X6640595Y-16189786D01*
X6631071Y-16227881D01*
X6621548Y-16246928D01*
X6612024Y-16256452D01*
X6592976Y-16265976D01*
X6573928Y-16265976D01*
X6554881Y-16256452D01*
X6545357Y-16246928D01*
X6535833Y-16227881D01*
X6526309Y-16189786D01*
X6526309Y-16142167D01*
X6535833Y-16104071D01*
X6545357Y-16085024D01*
X6554881Y-16075500D01*
X6573928Y-16065976D01*
X6764405Y-16065976D02*
X6783452Y-16065976D01*
X6802500Y-16075500D01*
X6812024Y-16085024D01*
X6821548Y-16104071D01*
X6831071Y-16142167D01*
X6831071Y-16189786D01*
X6821548Y-16227881D01*
X6812024Y-16246928D01*
X6802500Y-16256452D01*
X6783452Y-16265976D01*
X6764405Y-16265976D01*
X6745357Y-16256452D01*
X6735833Y-16246928D01*
X6726309Y-16227881D01*
X6716786Y-16189786D01*
X6716786Y-16142167D01*
X6726309Y-16104071D01*
X6735833Y-16085024D01*
X6745357Y-16075500D01*
X6764405Y-16065976D01*
X6954881Y-16065976D02*
X6973928Y-16065976D01*
X6992976Y-16075500D01*
X7002500Y-16085024D01*
X7012024Y-16104071D01*
X7021548Y-16142167D01*
X7021548Y-16189786D01*
X7012024Y-16227881D01*
X7002500Y-16246928D01*
X6992976Y-16256452D01*
X6973928Y-16265976D01*
X6954881Y-16265976D01*
X6935833Y-16256452D01*
X6926309Y-16246928D01*
X6916786Y-16227881D01*
X6907262Y-16189786D01*
X6907262Y-16142167D01*
X6916786Y-16104071D01*
X6926309Y-16085024D01*
X6935833Y-16075500D01*
X6954881Y-16065976D01*
X7107262Y-16265976D02*
X7107262Y-16132643D01*
X7107262Y-16151690D02*
X7116786Y-16142167D01*
X7135833Y-16132643D01*
X7164405Y-16132643D01*
X7183452Y-16142167D01*
X7192976Y-16161214D01*
X7192976Y-16265976D01*
X7192976Y-16161214D02*
X7202500Y-16142167D01*
X7221548Y-16132643D01*
X7250119Y-16132643D01*
X7269167Y-16142167D01*
X7278690Y-16161214D01*
X7278690Y-16265976D01*
X7373928Y-16265976D02*
X7373928Y-16132643D01*
X7373928Y-16151690D02*
X7383452Y-16142167D01*
X7402500Y-16132643D01*
X7431071Y-16132643D01*
X7450119Y-16142167D01*
X7459643Y-16161214D01*
X7459643Y-16265976D01*
X7459643Y-16161214D02*
X7469167Y-16142167D01*
X7488214Y-16132643D01*
X7516786Y-16132643D01*
X7535833Y-16142167D01*
X7545357Y-16161214D01*
X7545357Y-16265976D01*
X7935833Y-16056452D02*
X7764405Y-16313595D01*
X8192976Y-16065976D02*
X8212024Y-16065976D01*
X8231071Y-16075500D01*
X8240595Y-16085024D01*
X8250119Y-16104071D01*
X8259643Y-16142167D01*
X8259643Y-16189786D01*
X8250119Y-16227881D01*
X8240595Y-16246928D01*
X8231071Y-16256452D01*
X8212024Y-16265976D01*
X8192976Y-16265976D01*
X8173928Y-16256452D01*
X8164405Y-16246928D01*
X8154881Y-16227881D01*
X8145357Y-16189786D01*
X8145357Y-16142167D01*
X8154881Y-16104071D01*
X8164405Y-16085024D01*
X8173928Y-16075500D01*
X8192976Y-16065976D01*
X8345357Y-16246928D02*
X8354881Y-16256452D01*
X8345357Y-16265976D01*
X8335833Y-16256452D01*
X8345357Y-16246928D01*
X8345357Y-16265976D01*
X8478690Y-16065976D02*
X8497738Y-16065976D01*
X8516786Y-16075500D01*
X8526310Y-16085024D01*
X8535833Y-16104071D01*
X8545357Y-16142167D01*
X8545357Y-16189786D01*
X8535833Y-16227881D01*
X8526310Y-16246928D01*
X8516786Y-16256452D01*
X8497738Y-16265976D01*
X8478690Y-16265976D01*
X8459643Y-16256452D01*
X8450119Y-16246928D01*
X8440595Y-16227881D01*
X8431071Y-16189786D01*
X8431071Y-16142167D01*
X8440595Y-16104071D01*
X8450119Y-16085024D01*
X8459643Y-16075500D01*
X8478690Y-16065976D01*
X8612024Y-16065976D02*
X8735833Y-16065976D01*
X8669167Y-16142167D01*
X8697738Y-16142167D01*
X8716786Y-16151690D01*
X8726310Y-16161214D01*
X8735833Y-16180262D01*
X8735833Y-16227881D01*
X8726310Y-16246928D01*
X8716786Y-16256452D01*
X8697738Y-16265976D01*
X8640595Y-16265976D01*
X8621548Y-16256452D01*
X8612024Y-16246928D01*
X8831071Y-16265976D02*
X8869167Y-16265976D01*
X8888214Y-16256452D01*
X8897738Y-16246928D01*
X8916786Y-16218357D01*
X8926310Y-16180262D01*
X8926310Y-16104071D01*
X8916786Y-16085024D01*
X8907262Y-16075500D01*
X8888214Y-16065976D01*
X8850119Y-16065976D01*
X8831071Y-16075500D01*
X8821548Y-16085024D01*
X8812024Y-16104071D01*
X8812024Y-16151690D01*
X8821548Y-16170738D01*
X8831071Y-16180262D01*
X8850119Y-16189786D01*
X8888214Y-16189786D01*
X8907262Y-16180262D01*
X8916786Y-16170738D01*
X8926310Y-16151690D01*
X9097738Y-16132643D02*
X9097738Y-16265976D01*
X9050119Y-16056452D02*
X9002500Y-16199309D01*
X9126310Y-16199309D01*
X9192976Y-16065976D02*
X9192976Y-16104071D01*
X9269167Y-16065976D02*
X9269167Y-16104071D01*
X9564405Y-16342167D02*
X9554881Y-16332643D01*
X9535833Y-16304071D01*
X9526310Y-16285024D01*
X9516786Y-16256452D01*
X9507262Y-16208833D01*
X9507262Y-16170738D01*
X9516786Y-16123119D01*
X9526310Y-16094548D01*
X9535833Y-16075500D01*
X9554881Y-16046928D01*
X9564405Y-16037405D01*
X9745357Y-16265976D02*
X9631071Y-16265976D01*
X9688214Y-16265976D02*
X9688214Y-16065976D01*
X9669167Y-16094548D01*
X9650119Y-16113595D01*
X9631071Y-16123119D01*
X9916786Y-16065976D02*
X9878690Y-16065976D01*
X9859643Y-16075500D01*
X9850119Y-16085024D01*
X9831071Y-16113595D01*
X9821548Y-16151690D01*
X9821548Y-16227881D01*
X9831071Y-16246928D01*
X9840595Y-16256452D01*
X9859643Y-16265976D01*
X9897738Y-16265976D01*
X9916786Y-16256452D01*
X9926310Y-16246928D01*
X9935833Y-16227881D01*
X9935833Y-16180262D01*
X9926310Y-16161214D01*
X9916786Y-16151690D01*
X9897738Y-16142167D01*
X9859643Y-16142167D01*
X9840595Y-16151690D01*
X9831071Y-16161214D01*
X9821548Y-16180262D01*
X10173929Y-16265976D02*
X10173929Y-16065976D01*
X10259643Y-16265976D02*
X10259643Y-16161214D01*
X10250119Y-16142167D01*
X10231071Y-16132643D01*
X10202500Y-16132643D01*
X10183452Y-16142167D01*
X10173929Y-16151690D01*
X10383452Y-16265976D02*
X10364405Y-16256452D01*
X10354881Y-16246928D01*
X10345357Y-16227881D01*
X10345357Y-16170738D01*
X10354881Y-16151690D01*
X10364405Y-16142167D01*
X10383452Y-16132643D01*
X10412024Y-16132643D01*
X10431071Y-16142167D01*
X10440595Y-16151690D01*
X10450119Y-16170738D01*
X10450119Y-16227881D01*
X10440595Y-16246928D01*
X10431071Y-16256452D01*
X10412024Y-16265976D01*
X10383452Y-16265976D01*
X10564405Y-16265976D02*
X10545357Y-16256452D01*
X10535833Y-16237405D01*
X10535833Y-16065976D01*
X10716786Y-16256452D02*
X10697738Y-16265976D01*
X10659643Y-16265976D01*
X10640595Y-16256452D01*
X10631071Y-16237405D01*
X10631071Y-16161214D01*
X10640595Y-16142167D01*
X10659643Y-16132643D01*
X10697738Y-16132643D01*
X10716786Y-16142167D01*
X10726310Y-16161214D01*
X10726310Y-16180262D01*
X10631071Y-16199309D01*
X10802500Y-16256452D02*
X10821548Y-16265976D01*
X10859643Y-16265976D01*
X10878690Y-16256452D01*
X10888214Y-16237405D01*
X10888214Y-16227881D01*
X10878690Y-16208833D01*
X10859643Y-16199309D01*
X10831071Y-16199309D01*
X10812024Y-16189786D01*
X10802500Y-16170738D01*
X10802500Y-16161214D01*
X10812024Y-16142167D01*
X10831071Y-16132643D01*
X10859643Y-16132643D01*
X10878690Y-16142167D01*
X10954881Y-16342167D02*
X10964405Y-16332643D01*
X10983452Y-16304071D01*
X10992976Y-16285024D01*
X11002500Y-16256452D01*
X11012024Y-16208833D01*
X11012024Y-16170738D01*
X11002500Y-16123119D01*
X10992976Y-16094548D01*
X10983452Y-16075500D01*
X10964405Y-16046928D01*
X10954881Y-16037405D01*
D15*
X5976391Y-16478391D02*
X5976391Y-16400609D01*
X5898609Y-16400609D01*
X5898609Y-16478391D01*
X5976391Y-16478391D01*
D11*
X6354881Y-16529976D02*
X6240595Y-16529976D01*
X6297738Y-16529976D02*
X6297738Y-16329976D01*
X6278690Y-16358548D01*
X6259643Y-16377595D01*
X6240595Y-16387119D01*
X6440595Y-16510928D02*
X6450119Y-16520452D01*
X6440595Y-16529976D01*
X6431071Y-16520452D01*
X6440595Y-16510928D01*
X6440595Y-16529976D01*
X6640595Y-16529976D02*
X6526309Y-16529976D01*
X6583452Y-16529976D02*
X6583452Y-16329976D01*
X6564405Y-16358548D01*
X6545357Y-16377595D01*
X6526309Y-16387119D01*
X6764405Y-16329976D02*
X6783452Y-16329976D01*
X6802500Y-16339500D01*
X6812024Y-16349024D01*
X6821548Y-16368071D01*
X6831071Y-16406167D01*
X6831071Y-16453786D01*
X6821548Y-16491881D01*
X6812024Y-16510928D01*
X6802500Y-16520452D01*
X6783452Y-16529976D01*
X6764405Y-16529976D01*
X6745357Y-16520452D01*
X6735833Y-16510928D01*
X6726309Y-16491881D01*
X6716786Y-16453786D01*
X6716786Y-16406167D01*
X6726309Y-16368071D01*
X6735833Y-16349024D01*
X6745357Y-16339500D01*
X6764405Y-16329976D01*
X6954881Y-16329976D02*
X6973928Y-16329976D01*
X6992976Y-16339500D01*
X7002500Y-16349024D01*
X7012024Y-16368071D01*
X7021548Y-16406167D01*
X7021548Y-16453786D01*
X7012024Y-16491881D01*
X7002500Y-16510928D01*
X6992976Y-16520452D01*
X6973928Y-16529976D01*
X6954881Y-16529976D01*
X6935833Y-16520452D01*
X6926309Y-16510928D01*
X6916786Y-16491881D01*
X6907262Y-16453786D01*
X6907262Y-16406167D01*
X6916786Y-16368071D01*
X6926309Y-16349024D01*
X6935833Y-16339500D01*
X6954881Y-16329976D01*
X7107262Y-16529976D02*
X7107262Y-16396643D01*
X7107262Y-16415690D02*
X7116786Y-16406167D01*
X7135833Y-16396643D01*
X7164405Y-16396643D01*
X7183452Y-16406167D01*
X7192976Y-16425214D01*
X7192976Y-16529976D01*
X7192976Y-16425214D02*
X7202500Y-16406167D01*
X7221548Y-16396643D01*
X7250119Y-16396643D01*
X7269167Y-16406167D01*
X7278690Y-16425214D01*
X7278690Y-16529976D01*
X7373928Y-16529976D02*
X7373928Y-16396643D01*
X7373928Y-16415690D02*
X7383452Y-16406167D01*
X7402500Y-16396643D01*
X7431071Y-16396643D01*
X7450119Y-16406167D01*
X7459643Y-16425214D01*
X7459643Y-16529976D01*
X7459643Y-16425214D02*
X7469167Y-16406167D01*
X7488214Y-16396643D01*
X7516786Y-16396643D01*
X7535833Y-16406167D01*
X7545357Y-16425214D01*
X7545357Y-16529976D01*
X7935833Y-16320452D02*
X7764405Y-16577595D01*
X8192976Y-16329976D02*
X8212024Y-16329976D01*
X8231071Y-16339500D01*
X8240595Y-16349024D01*
X8250119Y-16368071D01*
X8259643Y-16406167D01*
X8259643Y-16453786D01*
X8250119Y-16491881D01*
X8240595Y-16510928D01*
X8231071Y-16520452D01*
X8212024Y-16529976D01*
X8192976Y-16529976D01*
X8173928Y-16520452D01*
X8164405Y-16510928D01*
X8154881Y-16491881D01*
X8145357Y-16453786D01*
X8145357Y-16406167D01*
X8154881Y-16368071D01*
X8164405Y-16349024D01*
X8173928Y-16339500D01*
X8192976Y-16329976D01*
X8345357Y-16510928D02*
X8354881Y-16520452D01*
X8345357Y-16529976D01*
X8335833Y-16520452D01*
X8345357Y-16510928D01*
X8345357Y-16529976D01*
X8478690Y-16329976D02*
X8497738Y-16329976D01*
X8516786Y-16339500D01*
X8526310Y-16349024D01*
X8535833Y-16368071D01*
X8545357Y-16406167D01*
X8545357Y-16453786D01*
X8535833Y-16491881D01*
X8526310Y-16510928D01*
X8516786Y-16520452D01*
X8497738Y-16529976D01*
X8478690Y-16529976D01*
X8459643Y-16520452D01*
X8450119Y-16510928D01*
X8440595Y-16491881D01*
X8431071Y-16453786D01*
X8431071Y-16406167D01*
X8440595Y-16368071D01*
X8450119Y-16349024D01*
X8459643Y-16339500D01*
X8478690Y-16329976D01*
X8716786Y-16396643D02*
X8716786Y-16529976D01*
X8669167Y-16320452D02*
X8621548Y-16463309D01*
X8745357Y-16463309D01*
X8802500Y-16329976D02*
X8926310Y-16329976D01*
X8859643Y-16406167D01*
X8888214Y-16406167D01*
X8907262Y-16415690D01*
X8916786Y-16425214D01*
X8926310Y-16444262D01*
X8926310Y-16491881D01*
X8916786Y-16510928D01*
X8907262Y-16520452D01*
X8888214Y-16529976D01*
X8831071Y-16529976D01*
X8812024Y-16520452D01*
X8802500Y-16510928D01*
X8992976Y-16329976D02*
X9116786Y-16329976D01*
X9050119Y-16406167D01*
X9078690Y-16406167D01*
X9097738Y-16415690D01*
X9107262Y-16425214D01*
X9116786Y-16444262D01*
X9116786Y-16491881D01*
X9107262Y-16510928D01*
X9097738Y-16520452D01*
X9078690Y-16529976D01*
X9021548Y-16529976D01*
X9002500Y-16520452D01*
X8992976Y-16510928D01*
X9192976Y-16329976D02*
X9192976Y-16368071D01*
X9269167Y-16329976D02*
X9269167Y-16368071D01*
X9564405Y-16606167D02*
X9554881Y-16596643D01*
X9535833Y-16568071D01*
X9526310Y-16549024D01*
X9516786Y-16520452D01*
X9507262Y-16472833D01*
X9507262Y-16434738D01*
X9516786Y-16387119D01*
X9526310Y-16358548D01*
X9535833Y-16339500D01*
X9554881Y-16310928D01*
X9564405Y-16301405D01*
X9745357Y-16529976D02*
X9631071Y-16529976D01*
X9688214Y-16529976D02*
X9688214Y-16329976D01*
X9669167Y-16358548D01*
X9650119Y-16377595D01*
X9631071Y-16387119D01*
X9916786Y-16329976D02*
X9878690Y-16329976D01*
X9859643Y-16339500D01*
X9850119Y-16349024D01*
X9831071Y-16377595D01*
X9821548Y-16415690D01*
X9821548Y-16491881D01*
X9831071Y-16510928D01*
X9840595Y-16520452D01*
X9859643Y-16529976D01*
X9897738Y-16529976D01*
X9916786Y-16520452D01*
X9926310Y-16510928D01*
X9935833Y-16491881D01*
X9935833Y-16444262D01*
X9926310Y-16425214D01*
X9916786Y-16415690D01*
X9897738Y-16406167D01*
X9859643Y-16406167D01*
X9840595Y-16415690D01*
X9831071Y-16425214D01*
X9821548Y-16444262D01*
X10173929Y-16529976D02*
X10173929Y-16329976D01*
X10259643Y-16529976D02*
X10259643Y-16425214D01*
X10250119Y-16406167D01*
X10231071Y-16396643D01*
X10202500Y-16396643D01*
X10183452Y-16406167D01*
X10173929Y-16415690D01*
X10383452Y-16529976D02*
X10364405Y-16520452D01*
X10354881Y-16510928D01*
X10345357Y-16491881D01*
X10345357Y-16434738D01*
X10354881Y-16415690D01*
X10364405Y-16406167D01*
X10383452Y-16396643D01*
X10412024Y-16396643D01*
X10431071Y-16406167D01*
X10440595Y-16415690D01*
X10450119Y-16434738D01*
X10450119Y-16491881D01*
X10440595Y-16510928D01*
X10431071Y-16520452D01*
X10412024Y-16529976D01*
X10383452Y-16529976D01*
X10564405Y-16529976D02*
X10545357Y-16520452D01*
X10535833Y-16501405D01*
X10535833Y-16329976D01*
X10716786Y-16520452D02*
X10697738Y-16529976D01*
X10659643Y-16529976D01*
X10640595Y-16520452D01*
X10631071Y-16501405D01*
X10631071Y-16425214D01*
X10640595Y-16406167D01*
X10659643Y-16396643D01*
X10697738Y-16396643D01*
X10716786Y-16406167D01*
X10726310Y-16425214D01*
X10726310Y-16444262D01*
X10631071Y-16463309D01*
X10802500Y-16520452D02*
X10821548Y-16529976D01*
X10859643Y-16529976D01*
X10878690Y-16520452D01*
X10888214Y-16501405D01*
X10888214Y-16491881D01*
X10878690Y-16472833D01*
X10859643Y-16463309D01*
X10831071Y-16463309D01*
X10812024Y-16453786D01*
X10802500Y-16434738D01*
X10802500Y-16425214D01*
X10812024Y-16406167D01*
X10831071Y-16396643D01*
X10859643Y-16396643D01*
X10878690Y-16406167D01*
X10954881Y-16606167D02*
X10964405Y-16596643D01*
X10983452Y-16568071D01*
X10992976Y-16549024D01*
X11002500Y-16520452D01*
X11012024Y-16472833D01*
X11012024Y-16434738D01*
X11002500Y-16387119D01*
X10992976Y-16358548D01*
X10983452Y-16339500D01*
X10964405Y-16310928D01*
X10954881Y-16301405D01*
D16*
X5932500Y-16763500D02*
X5992500Y-16703500D01*
X5932500Y-16643500D01*
X5872500Y-16703500D01*
X5932500Y-16763500D01*
D11*
X6354881Y-16793976D02*
X6240595Y-16793976D01*
X6297738Y-16793976D02*
X6297738Y-16593976D01*
X6278690Y-16622548D01*
X6259643Y-16641595D01*
X6240595Y-16651119D01*
X6440595Y-16774928D02*
X6450119Y-16784452D01*
X6440595Y-16793976D01*
X6431071Y-16784452D01*
X6440595Y-16774928D01*
X6440595Y-16793976D01*
X6526309Y-16613024D02*
X6535833Y-16603500D01*
X6554881Y-16593976D01*
X6602500Y-16593976D01*
X6621548Y-16603500D01*
X6631071Y-16613024D01*
X6640595Y-16632071D01*
X6640595Y-16651119D01*
X6631071Y-16679690D01*
X6516786Y-16793976D01*
X6640595Y-16793976D01*
X6764405Y-16593976D02*
X6783452Y-16593976D01*
X6802500Y-16603500D01*
X6812024Y-16613024D01*
X6821548Y-16632071D01*
X6831071Y-16670167D01*
X6831071Y-16717786D01*
X6821548Y-16755881D01*
X6812024Y-16774928D01*
X6802500Y-16784452D01*
X6783452Y-16793976D01*
X6764405Y-16793976D01*
X6745357Y-16784452D01*
X6735833Y-16774928D01*
X6726309Y-16755881D01*
X6716786Y-16717786D01*
X6716786Y-16670167D01*
X6726309Y-16632071D01*
X6735833Y-16613024D01*
X6745357Y-16603500D01*
X6764405Y-16593976D01*
X6954881Y-16593976D02*
X6973928Y-16593976D01*
X6992976Y-16603500D01*
X7002500Y-16613024D01*
X7012024Y-16632071D01*
X7021548Y-16670167D01*
X7021548Y-16717786D01*
X7012024Y-16755881D01*
X7002500Y-16774928D01*
X6992976Y-16784452D01*
X6973928Y-16793976D01*
X6954881Y-16793976D01*
X6935833Y-16784452D01*
X6926309Y-16774928D01*
X6916786Y-16755881D01*
X6907262Y-16717786D01*
X6907262Y-16670167D01*
X6916786Y-16632071D01*
X6926309Y-16613024D01*
X6935833Y-16603500D01*
X6954881Y-16593976D01*
X7107262Y-16793976D02*
X7107262Y-16660643D01*
X7107262Y-16679690D02*
X7116786Y-16670167D01*
X7135833Y-16660643D01*
X7164405Y-16660643D01*
X7183452Y-16670167D01*
X7192976Y-16689214D01*
X7192976Y-16793976D01*
X7192976Y-16689214D02*
X7202500Y-16670167D01*
X7221548Y-16660643D01*
X7250119Y-16660643D01*
X7269167Y-16670167D01*
X7278690Y-16689214D01*
X7278690Y-16793976D01*
X7373928Y-16793976D02*
X7373928Y-16660643D01*
X7373928Y-16679690D02*
X7383452Y-16670167D01*
X7402500Y-16660643D01*
X7431071Y-16660643D01*
X7450119Y-16670167D01*
X7459643Y-16689214D01*
X7459643Y-16793976D01*
X7459643Y-16689214D02*
X7469167Y-16670167D01*
X7488214Y-16660643D01*
X7516786Y-16660643D01*
X7535833Y-16670167D01*
X7545357Y-16689214D01*
X7545357Y-16793976D01*
X7935833Y-16584452D02*
X7764405Y-16841595D01*
X8192976Y-16593976D02*
X8212024Y-16593976D01*
X8231071Y-16603500D01*
X8240595Y-16613024D01*
X8250119Y-16632071D01*
X8259643Y-16670167D01*
X8259643Y-16717786D01*
X8250119Y-16755881D01*
X8240595Y-16774928D01*
X8231071Y-16784452D01*
X8212024Y-16793976D01*
X8192976Y-16793976D01*
X8173928Y-16784452D01*
X8164405Y-16774928D01*
X8154881Y-16755881D01*
X8145357Y-16717786D01*
X8145357Y-16670167D01*
X8154881Y-16632071D01*
X8164405Y-16613024D01*
X8173928Y-16603500D01*
X8192976Y-16593976D01*
X8345357Y-16774928D02*
X8354881Y-16784452D01*
X8345357Y-16793976D01*
X8335833Y-16784452D01*
X8345357Y-16774928D01*
X8345357Y-16793976D01*
X8478690Y-16593976D02*
X8497738Y-16593976D01*
X8516786Y-16603500D01*
X8526310Y-16613024D01*
X8535833Y-16632071D01*
X8545357Y-16670167D01*
X8545357Y-16717786D01*
X8535833Y-16755881D01*
X8526310Y-16774928D01*
X8516786Y-16784452D01*
X8497738Y-16793976D01*
X8478690Y-16793976D01*
X8459643Y-16784452D01*
X8450119Y-16774928D01*
X8440595Y-16755881D01*
X8431071Y-16717786D01*
X8431071Y-16670167D01*
X8440595Y-16632071D01*
X8450119Y-16613024D01*
X8459643Y-16603500D01*
X8478690Y-16593976D01*
X8716786Y-16660643D02*
X8716786Y-16793976D01*
X8669167Y-16584452D02*
X8621548Y-16727309D01*
X8745357Y-16727309D01*
X8802500Y-16593976D02*
X8935833Y-16593976D01*
X8850119Y-16793976D01*
X9002500Y-16613024D02*
X9012024Y-16603500D01*
X9031071Y-16593976D01*
X9078690Y-16593976D01*
X9097738Y-16603500D01*
X9107262Y-16613024D01*
X9116786Y-16632071D01*
X9116786Y-16651119D01*
X9107262Y-16679690D01*
X8992976Y-16793976D01*
X9116786Y-16793976D01*
X9192976Y-16593976D02*
X9192976Y-16632071D01*
X9269167Y-16593976D02*
X9269167Y-16632071D01*
X9564405Y-16870167D02*
X9554881Y-16860643D01*
X9535833Y-16832071D01*
X9526310Y-16813024D01*
X9516786Y-16784452D01*
X9507262Y-16736833D01*
X9507262Y-16698738D01*
X9516786Y-16651119D01*
X9526310Y-16622548D01*
X9535833Y-16603500D01*
X9554881Y-16574928D01*
X9564405Y-16565405D01*
X9745357Y-16793976D02*
X9631071Y-16793976D01*
X9688214Y-16793976D02*
X9688214Y-16593976D01*
X9669167Y-16622548D01*
X9650119Y-16641595D01*
X9631071Y-16651119D01*
X9821548Y-16613024D02*
X9831071Y-16603500D01*
X9850119Y-16593976D01*
X9897738Y-16593976D01*
X9916786Y-16603500D01*
X9926310Y-16613024D01*
X9935833Y-16632071D01*
X9935833Y-16651119D01*
X9926310Y-16679690D01*
X9812024Y-16793976D01*
X9935833Y-16793976D01*
X10173929Y-16793976D02*
X10173929Y-16593976D01*
X10259643Y-16793976D02*
X10259643Y-16689214D01*
X10250119Y-16670167D01*
X10231071Y-16660643D01*
X10202500Y-16660643D01*
X10183452Y-16670167D01*
X10173929Y-16679690D01*
X10383452Y-16793976D02*
X10364405Y-16784452D01*
X10354881Y-16774928D01*
X10345357Y-16755881D01*
X10345357Y-16698738D01*
X10354881Y-16679690D01*
X10364405Y-16670167D01*
X10383452Y-16660643D01*
X10412024Y-16660643D01*
X10431071Y-16670167D01*
X10440595Y-16679690D01*
X10450119Y-16698738D01*
X10450119Y-16755881D01*
X10440595Y-16774928D01*
X10431071Y-16784452D01*
X10412024Y-16793976D01*
X10383452Y-16793976D01*
X10564405Y-16793976D02*
X10545357Y-16784452D01*
X10535833Y-16765405D01*
X10535833Y-16593976D01*
X10716786Y-16784452D02*
X10697738Y-16793976D01*
X10659643Y-16793976D01*
X10640595Y-16784452D01*
X10631071Y-16765405D01*
X10631071Y-16689214D01*
X10640595Y-16670167D01*
X10659643Y-16660643D01*
X10697738Y-16660643D01*
X10716786Y-16670167D01*
X10726310Y-16689214D01*
X10726310Y-16708262D01*
X10631071Y-16727309D01*
X10802500Y-16784452D02*
X10821548Y-16793976D01*
X10859643Y-16793976D01*
X10878690Y-16784452D01*
X10888214Y-16765405D01*
X10888214Y-16755881D01*
X10878690Y-16736833D01*
X10859643Y-16727309D01*
X10831071Y-16727309D01*
X10812024Y-16717786D01*
X10802500Y-16698738D01*
X10802500Y-16689214D01*
X10812024Y-16670167D01*
X10831071Y-16660643D01*
X10859643Y-16660643D01*
X10878690Y-16670167D01*
X10954881Y-16870167D02*
X10964405Y-16860643D01*
X10983452Y-16832071D01*
X10992976Y-16813024D01*
X11002500Y-16784452D01*
X11012024Y-16736833D01*
X11012024Y-16698738D01*
X11002500Y-16651119D01*
X10992976Y-16622548D01*
X10983452Y-16603500D01*
X10964405Y-16574928D01*
X10954881Y-16565405D01*
M02*
