%TF.GenerationSoftware,KiCad,Pcbnew,(6.0.2)*%
%TF.CreationDate,2022-03-19T09:04:52+01:00*%
%TF.ProjectId,PSU,5053552e-6b69-4636-9164-5f7063625858,rev?*%
%TF.SameCoordinates,Original*%
%TF.FileFunction,Soldermask,Bot*%
%TF.FilePolarity,Negative*%
%FSLAX46Y46*%
G04 Gerber Fmt 4.6, Leading zero omitted, Abs format (unit mm)*
G04 Created by KiCad (PCBNEW (6.0.2)) date 2022-03-19 09:04:52*
%MOMM*%
%LPD*%
G01*
G04 APERTURE LIST*
G04 Aperture macros list*
%AMRoundRect*
0 Rectangle with rounded corners*
0 $1 Rounding radius*
0 $2 $3 $4 $5 $6 $7 $8 $9 X,Y pos of 4 corners*
0 Add a 4 corners polygon primitive as box body*
4,1,4,$2,$3,$4,$5,$6,$7,$8,$9,$2,$3,0*
0 Add four circle primitives for the rounded corners*
1,1,$1+$1,$2,$3*
1,1,$1+$1,$4,$5*
1,1,$1+$1,$6,$7*
1,1,$1+$1,$8,$9*
0 Add four rect primitives between the rounded corners*
20,1,$1+$1,$2,$3,$4,$5,0*
20,1,$1+$1,$4,$5,$6,$7,0*
20,1,$1+$1,$6,$7,$8,$9,0*
20,1,$1+$1,$8,$9,$2,$3,0*%
G04 Aperture macros list end*
%ADD10R,1.600000X1.600000*%
%ADD11C,1.600000*%
%ADD12C,3.200000*%
%ADD13R,2.000000X1.905000*%
%ADD14O,2.000000X1.905000*%
%ADD15R,2.400000X2.400000*%
%ADD16C,2.400000*%
%ADD17RoundRect,0.250000X-0.600000X0.600000X-0.600000X-0.600000X0.600000X-0.600000X0.600000X0.600000X0*%
%ADD18C,1.700000*%
%ADD19R,1.800000X1.800000*%
%ADD20C,1.800000*%
%ADD21R,2.200000X2.200000*%
%ADD22O,2.200000X2.200000*%
%ADD23O,1.600000X1.600000*%
%ADD24R,3.000000X3.000000*%
%ADD25C,3.000000*%
G04 APERTURE END LIST*
D10*
%TO.C,C10*%
X97000000Y-123794888D03*
D11*
X97000000Y-126294888D03*
%TD*%
D12*
%TO.C,REF\u002A\u002A*%
X104000000Y-144000000D03*
%TD*%
%TO.C,REF\u002A\u002A*%
X66000000Y-56000000D03*
%TD*%
D13*
%TO.C,U2*%
X104500000Y-122500000D03*
D14*
X104500000Y-125040000D03*
X104500000Y-127580000D03*
%TD*%
D15*
%TO.C,C3*%
X66022220Y-94000000D03*
D16*
X73522220Y-94000000D03*
%TD*%
D17*
%TO.C,J1*%
X94000000Y-143500000D03*
D18*
X94000000Y-146040000D03*
X91460000Y-143500000D03*
X91460000Y-146040000D03*
X88920000Y-143500000D03*
X88920000Y-146040000D03*
X86380000Y-143500000D03*
X86380000Y-146040000D03*
X83840000Y-143500000D03*
X83840000Y-146040000D03*
X81300000Y-143500000D03*
X81300000Y-146040000D03*
X78760000Y-143500000D03*
X78760000Y-146040000D03*
X76220000Y-143500000D03*
X76220000Y-146040000D03*
%TD*%
D19*
%TO.C,D4*%
X102725000Y-136500000D03*
D20*
X105265000Y-136500000D03*
%TD*%
D21*
%TO.C,D6*%
X87500000Y-130080000D03*
D22*
X87500000Y-119920000D03*
%TD*%
D10*
%TO.C,C9*%
X104000000Y-112500000D03*
D11*
X104000000Y-115000000D03*
%TD*%
D13*
%TO.C,U1*%
X65460000Y-127540000D03*
D14*
X65460000Y-125000000D03*
X65460000Y-122460000D03*
%TD*%
D11*
%TO.C,R2*%
X99500000Y-135000000D03*
D23*
X89340000Y-135000000D03*
%TD*%
D21*
%TO.C,D5*%
X87500000Y-60420000D03*
D22*
X87500000Y-70580000D03*
%TD*%
D15*
%TO.C,C7*%
X103477780Y-94000000D03*
D16*
X95977780Y-94000000D03*
%TD*%
D15*
%TO.C,C8*%
X81022220Y-106000000D03*
D16*
X88522220Y-106000000D03*
%TD*%
D12*
%TO.C,REF\u002A\u002A*%
X66000000Y-144000000D03*
%TD*%
%TO.C,REF\u002A\u002A*%
X104000000Y-56000000D03*
%TD*%
D11*
%TO.C,R1*%
X70500000Y-135000000D03*
D23*
X80660000Y-135000000D03*
%TD*%
D21*
%TO.C,D2*%
X81500000Y-70660000D03*
D22*
X81500000Y-60500000D03*
%TD*%
D10*
%TO.C,C4*%
X72500000Y-126205113D03*
D11*
X72500000Y-123705113D03*
%TD*%
D15*
%TO.C,C2*%
X88500000Y-82000000D03*
D16*
X81000000Y-82000000D03*
%TD*%
D19*
%TO.C,D3*%
X67500000Y-136500000D03*
D20*
X64960000Y-136500000D03*
%TD*%
D15*
%TO.C,C1*%
X66022220Y-70000000D03*
D16*
X73522220Y-70000000D03*
%TD*%
D10*
%TO.C,C5*%
X66000000Y-114705113D03*
D11*
X66000000Y-112205113D03*
%TD*%
D21*
%TO.C,D1*%
X83000000Y-120000000D03*
D22*
X83000000Y-130160000D03*
%TD*%
D15*
%TO.C,C6*%
X103477780Y-70000000D03*
D16*
X95977780Y-70000000D03*
%TD*%
D24*
%TO.C,JP1*%
X82500000Y-54500000D03*
D25*
X87500000Y-54500000D03*
%TD*%
M02*
