%FSLAX45Y45*%
G04 Gerber Fmt 4.5, Leading zero omitted, Abs format (unit mm)*
G04 Created by KiCad (PCBNEW (6.0.2)) date 2022-03-19 09:05:39*
%MOMM*%
%LPD*%
G01*
G04 APERTURE LIST*
%TA.AperFunction,Profile*%
%ADD10C,0.150000*%
%TD*%
%ADD11C,0.200000*%
%ADD12C,0.320000*%
G04 APERTURE END LIST*
D10*
X6000000Y-5000000D02*
X11000000Y-5000000D01*
X6000000Y-15000000D02*
X6000000Y-5000000D01*
X11000000Y-15000000D02*
X11000000Y-5000000D01*
X6000000Y-15000000D02*
X11000000Y-15000000D01*
D11*
D12*
X6440000Y-5440000D02*
X6760000Y-5760000D01*
X6760000Y-5440000D02*
X6440000Y-5760000D01*
X6440000Y-14240000D02*
X6760000Y-14560000D01*
X6760000Y-14240000D02*
X6440000Y-14560000D01*
X10240000Y-5440000D02*
X10560000Y-5760000D01*
X10560000Y-5440000D02*
X10240000Y-5760000D01*
X10240000Y-14240000D02*
X10560000Y-14560000D01*
X10560000Y-14240000D02*
X10240000Y-14560000D01*
D11*
X6250119Y-15317976D02*
X6250119Y-15117976D01*
X6297738Y-15117976D01*
X6326309Y-15127500D01*
X6345357Y-15146548D01*
X6354881Y-15165595D01*
X6364405Y-15203690D01*
X6364405Y-15232262D01*
X6354881Y-15270357D01*
X6345357Y-15289405D01*
X6326309Y-15308452D01*
X6297738Y-15317976D01*
X6250119Y-15317976D01*
X6450119Y-15317976D02*
X6450119Y-15184643D01*
X6450119Y-15222738D02*
X6459643Y-15203690D01*
X6469167Y-15194167D01*
X6488214Y-15184643D01*
X6507262Y-15184643D01*
X6573928Y-15317976D02*
X6573928Y-15184643D01*
X6573928Y-15117976D02*
X6564405Y-15127500D01*
X6573928Y-15137024D01*
X6583452Y-15127500D01*
X6573928Y-15117976D01*
X6573928Y-15137024D01*
X6697738Y-15317976D02*
X6678690Y-15308452D01*
X6669167Y-15289405D01*
X6669167Y-15117976D01*
X6802500Y-15317976D02*
X6783452Y-15308452D01*
X6773928Y-15289405D01*
X6773928Y-15117976D01*
X7031071Y-15317976D02*
X7031071Y-15117976D01*
X7097738Y-15260833D01*
X7164405Y-15117976D01*
X7164405Y-15317976D01*
X7345357Y-15317976D02*
X7345357Y-15213214D01*
X7335833Y-15194167D01*
X7316786Y-15184643D01*
X7278690Y-15184643D01*
X7259643Y-15194167D01*
X7345357Y-15308452D02*
X7326309Y-15317976D01*
X7278690Y-15317976D01*
X7259643Y-15308452D01*
X7250119Y-15289405D01*
X7250119Y-15270357D01*
X7259643Y-15251309D01*
X7278690Y-15241786D01*
X7326309Y-15241786D01*
X7345357Y-15232262D01*
X7440595Y-15184643D02*
X7440595Y-15384643D01*
X7440595Y-15194167D02*
X7459643Y-15184643D01*
X7497738Y-15184643D01*
X7516786Y-15194167D01*
X7526309Y-15203690D01*
X7535833Y-15222738D01*
X7535833Y-15279881D01*
X7526309Y-15298928D01*
X7516786Y-15308452D01*
X7497738Y-15317976D01*
X7459643Y-15317976D01*
X7440595Y-15308452D01*
X7621548Y-15298928D02*
X7631071Y-15308452D01*
X7621548Y-15317976D01*
X7612024Y-15308452D01*
X7621548Y-15298928D01*
X7621548Y-15317976D01*
X7621548Y-15194167D02*
X7631071Y-15203690D01*
X7621548Y-15213214D01*
X7612024Y-15203690D01*
X7621548Y-15194167D01*
X7621548Y-15213214D01*
X5792500Y-15547500D02*
X5992500Y-15747500D01*
X5992500Y-15547500D02*
X5792500Y-15747500D01*
X6231071Y-15537976D02*
X6354881Y-15537976D01*
X6288214Y-15614167D01*
X6316786Y-15614167D01*
X6335833Y-15623690D01*
X6345357Y-15633214D01*
X6354881Y-15652262D01*
X6354881Y-15699881D01*
X6345357Y-15718928D01*
X6335833Y-15728452D01*
X6316786Y-15737976D01*
X6259643Y-15737976D01*
X6240595Y-15728452D01*
X6231071Y-15718928D01*
X6440595Y-15718928D02*
X6450119Y-15728452D01*
X6440595Y-15737976D01*
X6431071Y-15728452D01*
X6440595Y-15718928D01*
X6440595Y-15737976D01*
X6526309Y-15557024D02*
X6535833Y-15547500D01*
X6554881Y-15537976D01*
X6602500Y-15537976D01*
X6621548Y-15547500D01*
X6631071Y-15557024D01*
X6640595Y-15576071D01*
X6640595Y-15595119D01*
X6631071Y-15623690D01*
X6516786Y-15737976D01*
X6640595Y-15737976D01*
X6764405Y-15537976D02*
X6783452Y-15537976D01*
X6802500Y-15547500D01*
X6812024Y-15557024D01*
X6821548Y-15576071D01*
X6831071Y-15614167D01*
X6831071Y-15661786D01*
X6821548Y-15699881D01*
X6812024Y-15718928D01*
X6802500Y-15728452D01*
X6783452Y-15737976D01*
X6764405Y-15737976D01*
X6745357Y-15728452D01*
X6735833Y-15718928D01*
X6726309Y-15699881D01*
X6716786Y-15661786D01*
X6716786Y-15614167D01*
X6726309Y-15576071D01*
X6735833Y-15557024D01*
X6745357Y-15547500D01*
X6764405Y-15537976D01*
X6954881Y-15537976D02*
X6973928Y-15537976D01*
X6992976Y-15547500D01*
X7002500Y-15557024D01*
X7012024Y-15576071D01*
X7021548Y-15614167D01*
X7021548Y-15661786D01*
X7012024Y-15699881D01*
X7002500Y-15718928D01*
X6992976Y-15728452D01*
X6973928Y-15737976D01*
X6954881Y-15737976D01*
X6935833Y-15728452D01*
X6926309Y-15718928D01*
X6916786Y-15699881D01*
X6907262Y-15661786D01*
X6907262Y-15614167D01*
X6916786Y-15576071D01*
X6926309Y-15557024D01*
X6935833Y-15547500D01*
X6954881Y-15537976D01*
X7107262Y-15737976D02*
X7107262Y-15604643D01*
X7107262Y-15623690D02*
X7116786Y-15614167D01*
X7135833Y-15604643D01*
X7164405Y-15604643D01*
X7183452Y-15614167D01*
X7192976Y-15633214D01*
X7192976Y-15737976D01*
X7192976Y-15633214D02*
X7202500Y-15614167D01*
X7221548Y-15604643D01*
X7250119Y-15604643D01*
X7269167Y-15614167D01*
X7278690Y-15633214D01*
X7278690Y-15737976D01*
X7373928Y-15737976D02*
X7373928Y-15604643D01*
X7373928Y-15623690D02*
X7383452Y-15614167D01*
X7402500Y-15604643D01*
X7431071Y-15604643D01*
X7450119Y-15614167D01*
X7459643Y-15633214D01*
X7459643Y-15737976D01*
X7459643Y-15633214D02*
X7469167Y-15614167D01*
X7488214Y-15604643D01*
X7516786Y-15604643D01*
X7535833Y-15614167D01*
X7545357Y-15633214D01*
X7545357Y-15737976D01*
X7935833Y-15528452D02*
X7764405Y-15785595D01*
X8192976Y-15537976D02*
X8212024Y-15537976D01*
X8231071Y-15547500D01*
X8240595Y-15557024D01*
X8250119Y-15576071D01*
X8259643Y-15614167D01*
X8259643Y-15661786D01*
X8250119Y-15699881D01*
X8240595Y-15718928D01*
X8231071Y-15728452D01*
X8212024Y-15737976D01*
X8192976Y-15737976D01*
X8173928Y-15728452D01*
X8164405Y-15718928D01*
X8154881Y-15699881D01*
X8145357Y-15661786D01*
X8145357Y-15614167D01*
X8154881Y-15576071D01*
X8164405Y-15557024D01*
X8173928Y-15547500D01*
X8192976Y-15537976D01*
X8345357Y-15718928D02*
X8354881Y-15728452D01*
X8345357Y-15737976D01*
X8335833Y-15728452D01*
X8345357Y-15718928D01*
X8345357Y-15737976D01*
X8545357Y-15737976D02*
X8431071Y-15737976D01*
X8488214Y-15737976D02*
X8488214Y-15537976D01*
X8469167Y-15566548D01*
X8450119Y-15585595D01*
X8431071Y-15595119D01*
X8621548Y-15557024D02*
X8631071Y-15547500D01*
X8650119Y-15537976D01*
X8697738Y-15537976D01*
X8716786Y-15547500D01*
X8726310Y-15557024D01*
X8735833Y-15576071D01*
X8735833Y-15595119D01*
X8726310Y-15623690D01*
X8612024Y-15737976D01*
X8735833Y-15737976D01*
X8907262Y-15537976D02*
X8869167Y-15537976D01*
X8850119Y-15547500D01*
X8840595Y-15557024D01*
X8821548Y-15585595D01*
X8812024Y-15623690D01*
X8812024Y-15699881D01*
X8821548Y-15718928D01*
X8831071Y-15728452D01*
X8850119Y-15737976D01*
X8888214Y-15737976D01*
X8907262Y-15728452D01*
X8916786Y-15718928D01*
X8926310Y-15699881D01*
X8926310Y-15652262D01*
X8916786Y-15633214D01*
X8907262Y-15623690D01*
X8888214Y-15614167D01*
X8850119Y-15614167D01*
X8831071Y-15623690D01*
X8821548Y-15633214D01*
X8812024Y-15652262D01*
X9050119Y-15537976D02*
X9069167Y-15537976D01*
X9088214Y-15547500D01*
X9097738Y-15557024D01*
X9107262Y-15576071D01*
X9116786Y-15614167D01*
X9116786Y-15661786D01*
X9107262Y-15699881D01*
X9097738Y-15718928D01*
X9088214Y-15728452D01*
X9069167Y-15737976D01*
X9050119Y-15737976D01*
X9031071Y-15728452D01*
X9021548Y-15718928D01*
X9012024Y-15699881D01*
X9002500Y-15661786D01*
X9002500Y-15614167D01*
X9012024Y-15576071D01*
X9021548Y-15557024D01*
X9031071Y-15547500D01*
X9050119Y-15537976D01*
X9192976Y-15537976D02*
X9192976Y-15576071D01*
X9269167Y-15537976D02*
X9269167Y-15576071D01*
X9564405Y-15814167D02*
X9554881Y-15804643D01*
X9535833Y-15776071D01*
X9526310Y-15757024D01*
X9516786Y-15728452D01*
X9507262Y-15680833D01*
X9507262Y-15642738D01*
X9516786Y-15595119D01*
X9526310Y-15566548D01*
X9535833Y-15547500D01*
X9554881Y-15518928D01*
X9564405Y-15509405D01*
X9726310Y-15604643D02*
X9726310Y-15737976D01*
X9678690Y-15528452D02*
X9631071Y-15671309D01*
X9754881Y-15671309D01*
X9983452Y-15737976D02*
X9983452Y-15537976D01*
X10069167Y-15737976D02*
X10069167Y-15633214D01*
X10059643Y-15614167D01*
X10040595Y-15604643D01*
X10012024Y-15604643D01*
X9992976Y-15614167D01*
X9983452Y-15623690D01*
X10192976Y-15737976D02*
X10173929Y-15728452D01*
X10164405Y-15718928D01*
X10154881Y-15699881D01*
X10154881Y-15642738D01*
X10164405Y-15623690D01*
X10173929Y-15614167D01*
X10192976Y-15604643D01*
X10221548Y-15604643D01*
X10240595Y-15614167D01*
X10250119Y-15623690D01*
X10259643Y-15642738D01*
X10259643Y-15699881D01*
X10250119Y-15718928D01*
X10240595Y-15728452D01*
X10221548Y-15737976D01*
X10192976Y-15737976D01*
X10373929Y-15737976D02*
X10354881Y-15728452D01*
X10345357Y-15709405D01*
X10345357Y-15537976D01*
X10526310Y-15728452D02*
X10507262Y-15737976D01*
X10469167Y-15737976D01*
X10450119Y-15728452D01*
X10440595Y-15709405D01*
X10440595Y-15633214D01*
X10450119Y-15614167D01*
X10469167Y-15604643D01*
X10507262Y-15604643D01*
X10526310Y-15614167D01*
X10535833Y-15633214D01*
X10535833Y-15652262D01*
X10440595Y-15671309D01*
X10612024Y-15728452D02*
X10631071Y-15737976D01*
X10669167Y-15737976D01*
X10688214Y-15728452D01*
X10697738Y-15709405D01*
X10697738Y-15699881D01*
X10688214Y-15680833D01*
X10669167Y-15671309D01*
X10640595Y-15671309D01*
X10621548Y-15661786D01*
X10612024Y-15642738D01*
X10612024Y-15633214D01*
X10621548Y-15614167D01*
X10640595Y-15604643D01*
X10669167Y-15604643D01*
X10688214Y-15614167D01*
X10764405Y-15814167D02*
X10773929Y-15804643D01*
X10792976Y-15776071D01*
X10802500Y-15757024D01*
X10812024Y-15728452D01*
X10821548Y-15680833D01*
X10821548Y-15642738D01*
X10812024Y-15595119D01*
X10802500Y-15566548D01*
X10792976Y-15547500D01*
X10773929Y-15518928D01*
X10764405Y-15509405D01*
X11126310Y-15814167D02*
X11116786Y-15804643D01*
X11097738Y-15776071D01*
X11088214Y-15757024D01*
X11078690Y-15728452D01*
X11069167Y-15680833D01*
X11069167Y-15642738D01*
X11078690Y-15595119D01*
X11088214Y-15566548D01*
X11097738Y-15547500D01*
X11116786Y-15518928D01*
X11126310Y-15509405D01*
X11202500Y-15604643D02*
X11202500Y-15737976D01*
X11202500Y-15623690D02*
X11212024Y-15614167D01*
X11231071Y-15604643D01*
X11259643Y-15604643D01*
X11278690Y-15614167D01*
X11288214Y-15633214D01*
X11288214Y-15737976D01*
X11412024Y-15737976D02*
X11392976Y-15728452D01*
X11383452Y-15718928D01*
X11373928Y-15699881D01*
X11373928Y-15642738D01*
X11383452Y-15623690D01*
X11392976Y-15614167D01*
X11412024Y-15604643D01*
X11440595Y-15604643D01*
X11459643Y-15614167D01*
X11469167Y-15623690D01*
X11478690Y-15642738D01*
X11478690Y-15699881D01*
X11469167Y-15718928D01*
X11459643Y-15728452D01*
X11440595Y-15737976D01*
X11412024Y-15737976D01*
X11535833Y-15604643D02*
X11612024Y-15604643D01*
X11564405Y-15537976D02*
X11564405Y-15709405D01*
X11573928Y-15728452D01*
X11592976Y-15737976D01*
X11612024Y-15737976D01*
X11831071Y-15604643D02*
X11831071Y-15804643D01*
X11831071Y-15614167D02*
X11850119Y-15604643D01*
X11888214Y-15604643D01*
X11907262Y-15614167D01*
X11916786Y-15623690D01*
X11926309Y-15642738D01*
X11926309Y-15699881D01*
X11916786Y-15718928D01*
X11907262Y-15728452D01*
X11888214Y-15737976D01*
X11850119Y-15737976D01*
X11831071Y-15728452D01*
X12040595Y-15737976D02*
X12021548Y-15728452D01*
X12012024Y-15709405D01*
X12012024Y-15537976D01*
X12202500Y-15737976D02*
X12202500Y-15633214D01*
X12192976Y-15614167D01*
X12173928Y-15604643D01*
X12135833Y-15604643D01*
X12116786Y-15614167D01*
X12202500Y-15728452D02*
X12183452Y-15737976D01*
X12135833Y-15737976D01*
X12116786Y-15728452D01*
X12107262Y-15709405D01*
X12107262Y-15690357D01*
X12116786Y-15671309D01*
X12135833Y-15661786D01*
X12183452Y-15661786D01*
X12202500Y-15652262D01*
X12269167Y-15604643D02*
X12345357Y-15604643D01*
X12297738Y-15537976D02*
X12297738Y-15709405D01*
X12307262Y-15728452D01*
X12326309Y-15737976D01*
X12345357Y-15737976D01*
X12488214Y-15728452D02*
X12469167Y-15737976D01*
X12431071Y-15737976D01*
X12412024Y-15728452D01*
X12402500Y-15709405D01*
X12402500Y-15633214D01*
X12412024Y-15614167D01*
X12431071Y-15604643D01*
X12469167Y-15604643D01*
X12488214Y-15614167D01*
X12497738Y-15633214D01*
X12497738Y-15652262D01*
X12402500Y-15671309D01*
X12669167Y-15737976D02*
X12669167Y-15537976D01*
X12669167Y-15728452D02*
X12650119Y-15737976D01*
X12612024Y-15737976D01*
X12592976Y-15728452D01*
X12583452Y-15718928D01*
X12573928Y-15699881D01*
X12573928Y-15642738D01*
X12583452Y-15623690D01*
X12592976Y-15614167D01*
X12612024Y-15604643D01*
X12650119Y-15604643D01*
X12669167Y-15614167D01*
X12745357Y-15814167D02*
X12754881Y-15804643D01*
X12773928Y-15776071D01*
X12783452Y-15757024D01*
X12792976Y-15728452D01*
X12802500Y-15680833D01*
X12802500Y-15642738D01*
X12792976Y-15595119D01*
X12783452Y-15566548D01*
X12773928Y-15547500D01*
X12754881Y-15518928D01*
X12745357Y-15509405D01*
M02*
