M48
; DRILL file {KiCad (6.0.2)} date Sat Mar 19 09:05:25 2022
; FORMAT={-:-/ absolute / metric / decimal}
; #@! TF.CreationDate,2022-03-19T09:05:25+01:00
; #@! TF.GenerationSoftware,Kicad,Pcbnew,(6.0.2)
; #@! TF.FileFunction,Plated,1,2,PTH
FMAT,2
METRIC
; #@! TA.AperFunction,Plated,PTH,ComponentDrill
T1C0.800
; #@! TA.AperFunction,Plated,PTH,ComponentDrill
T2C0.900
; #@! TA.AperFunction,Plated,PTH,ComponentDrill
T3C1.000
; #@! TA.AperFunction,Plated,PTH,ComponentDrill
T4C1.100
; #@! TA.AperFunction,Plated,PTH,ComponentDrill
T5C1.200
%
G90
G05
T1
X66.0Y-112.205
X66.0Y-114.705
X70.5Y-135.0
X72.5Y-123.705
X72.5Y-126.205
X80.66Y-135.0
X89.34Y-135.0
X97.0Y-123.795
X97.0Y-126.295
X99.5Y-135.0
X104.0Y-112.5
X104.0Y-115.0
T2
X64.96Y-136.5
X67.5Y-136.5
X102.725Y-136.5
X105.265Y-136.5
T3
X76.22Y-143.5
X76.22Y-146.04
X78.76Y-143.5
X78.76Y-146.04
X81.3Y-143.5
X81.3Y-146.04
X83.84Y-143.5
X83.84Y-146.04
X86.38Y-143.5
X86.38Y-146.04
X88.92Y-143.5
X88.92Y-146.04
X91.46Y-143.5
X91.46Y-146.04
X94.0Y-143.5
X94.0Y-146.04
T4
X65.46Y-122.46
X65.46Y-125.0
X65.46Y-127.54
X81.5Y-60.5
X81.5Y-70.66
X82.5Y-54.5
X83.0Y-120.0
X83.0Y-130.16
X87.5Y-54.5
X87.5Y-60.42
X87.5Y-70.58
X87.5Y-119.92
X87.5Y-130.08
X104.5Y-122.5
X104.5Y-125.04
X104.5Y-127.58
T5
X66.022Y-70.0
X66.022Y-94.0
X73.522Y-70.0
X73.522Y-94.0
X81.0Y-82.0
X81.022Y-106.0
X88.5Y-82.0
X88.522Y-106.0
X95.978Y-70.0
X95.978Y-94.0
X103.478Y-70.0
X103.478Y-94.0
T0
M30
